<svg width="50" height="50" viewBox="0 0 50 50" fill="none" xmlns="http://www.w3.org/2000/svg">
<g clip-path="url(#clip0_107_14)">
<path d="M25 0C38.8071 0 50 11.1929 50 25C50 38.8071 38.8071 50 25 50C11.1929 50 0 38.8071 0 25C0 11.1929 11.1929 0 25 0ZM20 19C18.3431 19 17 20.3431 17 22C17 23.6569 18.3431 25 20 25H22V32H20C18.3431 32 17 33.3431 17 35C17 36.6569 18.3431 38 20 38H29C30.6569 38 32 36.6569 32 35C32 33.3431 30.6569 32 29 32H28V22C28 20.3431 26.6569 19 25 19H20ZM25 11C23.3431 11 22 12.3431 22 14C22 15.6569 23.3431 17 25 17C26.6569 17 28 15.6569 28 14C28 12.3431 26.6569 11 25 11Z"
      fill="currentColor"/>
</g>
<defs>
<clipPath id="clip0_107_14">
<rect width="50" height="50" fill="currentColor"/>
</clipPath>
</defs>
</svg>
