<svg width="100" height="100" viewBox="0 0 100 100" fill="none" xmlns="http://www.w3.org/2000/svg">
<g clip-path="url(#clip0_123_2)">
<path d="M30.4932 3.94922C30.168 6.25276 30 8.60675 30 11C30 38.6142 52.3858 61 80 61C86.9205 61 93.5122 59.5927 99.5059 57.0508C96.0796 81.3263 75.2209 100 50 100C22.3858 100 0 77.6142 0 50C0 29.3066 12.5714 11.5503 30.4932 3.94922Z" fill="currentColor"/>
<path d="M64.0621 2.53451C64.3843 1.66389 65.6157 1.66389 65.9379 2.53451L67.7748 7.49871C68.5851 9.68846 70.3115 11.4149 72.5013 12.2252L77.4655 14.0621C78.3361 14.3843 78.3361 15.6157 77.4655 15.9379L72.5013 17.7748C70.3115 18.5851 68.5851 20.3115 67.7748 22.5013L65.9379 27.4655C65.6157 28.3361 64.3843 28.3361 64.0621 27.4655L62.2252 22.5013C61.4149 20.3115 59.6885 18.5851 57.4987 17.7748L52.5345 15.9379C51.6639 15.6157 51.6639 14.3843 52.5345 14.0621L57.4987 12.2252C59.6885 11.4149 61.4149 9.68846 62.2252 7.49871L64.0621 2.53451Z" fill="currentColor"/>
<path d="M79.4373 31.5207C79.6306 30.9983 80.3694 30.9983 80.5627 31.5207L81.6649 34.4992C82.151 35.8131 83.1869 36.849 84.5008 37.3351L87.4793 38.4373C88.0017 38.6306 88.0017 39.3694 87.4793 39.5627L84.5008 40.6649C83.1869 41.151 82.151 42.1869 81.6649 43.5008L80.5627 46.4793C80.3694 47.0017 79.6306 47.0017 79.4373 46.4793L78.3351 43.5008C77.849 42.1869 76.8131 41.151 75.4992 40.6649L72.5207 39.5627C71.9983 39.3694 71.9983 38.6306 72.5207 38.4373L75.4992 37.3351C76.8131 36.849 77.849 35.8131 78.3351 34.4992L79.4373 31.5207Z" fill="currentColor"/>
</g>
<defs>
<clipPath id="clip0_123_2">
<rect width="100" height="100" fill="currentColor"/>
</clipPath>
</defs>
</svg>
