<svg width="100" height="100" viewBox="0 0 100 100" fill="none" xmlns="http://www.w3.org/2000/svg">
<g clip-path="url(#clip0_123_12)">
<circle cx="50" cy="50" r="30" fill="currentColor"/>
<path d="M55 100H45V90H55V100ZM25.251 81.8203L18.1807 88.8906L11.1094 81.8203L18.1807 74.749L25.251 81.8203ZM88.8906 81.8193L81.8193 88.8906L74.749 81.8193L81.8193 74.749L88.8906 81.8193ZM10 55H0V45H10V55ZM100 55H90V45H100V55ZM25.251 18.1807L18.1807 25.251L11.1094 18.1807L18.1807 11.1094L25.251 18.1807ZM88.8906 18.1807L81.8193 25.251L74.749 18.1807L81.8193 11.1094L88.8906 18.1807ZM55 10H45V0H55V10Z" fill="currentColor"/>
</g>
<defs>
<clipPath id="clip0_123_12">
<rect width="100" height="100" fill="currentColor"/>
</clipPath>
</defs>
</svg>
