<svg width="175" height="175" viewBox="0 0 175 175" fill="none" xmlns="http://www.w3.org/2000/svg">
<path d="M87.5068 0C135.366 4.4912e-05 174.249 38.4174 175 86.0938C173.338 82.9834 170.154 80.9551 166.517 80.9551C161.178 80.9551 156.848 85.3229 156.848 91.0723C156.848 96.8215 161.178 101.115 166.517 101.115C169.829 101.115 172.766 99.4614 174.52 96.834C169.86 140.77 132.682 175 87.5068 175C39.1782 175 0 135.825 0 87.5C0 39.1751 39.1782 0 87.5068 0ZM55.1758 117.325V121.025C55.1758 121.612 55.0386 122.067 54.7656 122.391C54.4927 122.704 54.0885 122.861 53.5527 122.861C53.027 122.861 52.6521 122.694 52.4297 122.36C52.2175 122.027 52.1113 121.455 52.1113 120.646V117.34H49.8213V121.375C49.8214 123.72 50.9185 124.893 53.1123 124.894C53.9212 124.894 54.6442 124.67 55.2812 124.226C55.2914 124.317 55.2969 124.408 55.2969 124.499C55.2969 125.156 55.125 125.697 54.7812 126.122C54.4375 126.557 53.9767 126.774 53.4004 126.774C52.4805 126.774 51.823 126.238 51.4287 125.166L49.4727 126.016C49.8063 126.885 50.3173 127.552 51.0049 128.018C51.7024 128.482 52.5109 128.716 53.4307 128.716C54.6136 128.716 55.5799 128.316 56.3281 127.518C57.0864 126.719 57.4658 125.606 57.4658 124.181V117.325H55.1758ZM39.5801 114.246V125.5H41.8545V124.423C42.4915 125.222 43.2905 125.621 44.251 125.621C45.2216 125.621 46.0864 125.212 46.8447 124.393C47.6029 123.574 47.9823 122.558 47.9824 121.345C47.9824 120.132 47.613 119.14 46.875 118.372C46.1369 117.594 45.2721 117.204 44.2812 117.204C43.2905 117.204 42.4813 117.552 41.8545 118.25V114.246H39.5801ZM67.4453 117.204C66.4848 117.204 65.7004 117.442 65.0938 117.917C64.4875 118.392 64.1847 119.009 64.1846 119.767C64.1846 120.515 64.4926 121.082 65.1094 121.466C65.4126 121.658 65.6806 121.804 65.9131 121.905C66.1557 122.006 66.4995 122.128 66.9443 122.27C67.3993 122.411 67.743 122.563 67.9756 122.725C68.2181 122.886 68.3397 123.063 68.3398 123.255C68.3398 123.447 68.2539 123.604 68.082 123.726C67.9102 123.837 67.6778 123.893 67.3848 123.893C66.4243 123.893 65.5192 123.563 64.6699 122.906L63.6689 124.332C64.1947 124.757 64.7862 125.08 65.4434 125.303C66.1005 125.515 66.7323 125.621 67.3389 125.621C68.2489 125.621 68.9975 125.379 69.584 124.894C70.1804 124.408 70.4785 123.765 70.4785 122.967C70.4784 122.158 70.195 121.582 69.6289 121.238C69.3258 121.056 69.0632 120.925 68.8408 120.844C68.6285 120.753 68.2637 120.627 67.748 120.465C67.2328 120.303 66.8641 120.161 66.6416 120.04C66.4192 119.919 66.3076 119.751 66.3076 119.539C66.3079 119.155 66.6571 118.963 67.3545 118.963C68.0621 118.963 68.7699 119.206 69.4775 119.691L70.3271 118.175C69.3667 117.528 68.4058 117.204 67.4453 117.204ZM76.3555 117.204C75.1221 117.204 74.0962 117.614 73.2773 118.433C72.4584 119.241 72.0489 120.237 72.0488 121.42C72.0488 122.603 72.4583 123.599 73.2773 124.408C74.0962 125.217 75.1222 125.621 76.3555 125.621C77.5991 125.621 78.6312 125.217 79.4502 124.408C80.2692 123.599 80.6787 122.603 80.6787 121.42C80.6787 120.237 80.2689 119.241 79.4502 118.433C78.6312 117.614 77.5991 117.204 76.3555 117.204ZM82.6719 114.898V122.739C82.6719 123.629 82.9397 124.332 83.4756 124.848C84.0215 125.363 84.6835 125.621 85.4619 125.621C86.2506 125.621 86.9993 125.298 87.707 124.65L86.8574 123.059C86.5642 123.443 86.2048 123.635 85.7803 123.635C85.558 123.635 85.3658 123.549 85.2041 123.377C85.0424 123.195 84.962 122.947 84.9619 122.634V114.898H82.6719ZM92.8037 117.204C91.7523 117.204 90.827 117.584 90.0283 118.342C89.2299 119.1 88.8301 120.116 88.8301 121.39C88.8301 122.653 89.2197 123.675 89.998 124.453C90.7766 125.232 91.6871 125.621 92.7285 125.621C93.5574 125.621 94.2954 125.359 94.9424 124.833V125.5H97.2324V117.34H94.9424V118.022C94.3358 117.477 93.6226 117.204 92.8037 117.204ZM110.108 117.204C108.996 117.204 108.011 117.588 107.151 118.356C106.302 119.125 105.877 120.131 105.877 121.375C105.877 122.608 106.267 123.624 107.045 124.423C107.823 125.222 108.865 125.621 110.169 125.621C111.483 125.621 112.662 125.07 113.703 123.968L112.398 122.558C112.156 122.922 111.828 123.215 111.413 123.438C111.009 123.65 110.589 123.756 110.154 123.756C109.517 123.756 109.026 123.538 108.683 123.104L114.112 120.859V120.571C114.052 119.58 113.648 118.771 112.899 118.145C112.151 117.518 111.221 117.204 110.108 117.204ZM104.479 117.204C104.025 117.214 103.575 117.335 103.13 117.567C102.695 117.8 102.331 118.083 102.038 118.417V117.34H99.7627V125.5H102.038V121.966C102.038 121.177 102.205 120.545 102.538 120.07C102.872 119.585 103.378 119.343 104.056 119.343H104.495L104.479 117.204ZM93.0771 119.115C93.613 119.115 94.0628 119.337 94.4268 119.782C94.7907 120.227 94.9726 120.783 94.9727 121.45C94.9727 122.107 94.7908 122.649 94.4268 123.073C94.0629 123.488 93.6183 123.695 93.0928 123.695C92.567 123.695 92.1062 123.488 91.7119 123.073C91.3177 122.649 91.1211 122.103 91.1211 121.436C91.1211 120.768 91.313 120.217 91.6973 119.782C92.0815 119.337 92.5413 119.115 93.0771 119.115ZM43.7354 119.115C44.2712 119.115 44.731 119.337 45.1152 119.782C45.4995 120.227 45.6924 120.778 45.6924 121.436C45.6923 122.093 45.4949 122.634 45.1006 123.059C44.7064 123.473 44.2462 123.68 43.7207 123.68C43.1949 123.68 42.7442 123.473 42.3701 123.059C42.0062 122.634 41.8243 122.093 41.8242 121.436C41.8242 120.768 42.0062 120.217 42.3701 119.782C42.7442 119.337 43.1995 119.115 43.7354 119.115ZM76.3555 119.146C76.952 119.146 77.4374 119.358 77.8115 119.782C78.1957 120.207 78.3886 120.753 78.3887 121.42C78.3887 122.087 78.1957 122.634 77.8115 123.059C77.4375 123.473 76.9518 123.68 76.3555 123.68C75.7694 123.68 75.2844 123.473 74.9004 123.059C74.5263 122.634 74.3389 122.087 74.3389 121.42C74.3389 120.753 74.5263 120.207 74.9004 119.782C75.2845 119.358 75.7693 119.146 76.3555 119.146ZM110.23 119.176C111.059 119.176 111.539 119.474 111.671 120.07L108.122 121.511C108.112 121.45 108.106 121.359 108.106 121.238C108.106 120.591 108.319 120.086 108.744 119.722C109.179 119.358 109.674 119.176 110.23 119.176ZM51.7471 74.085C44.6913 74.085 39.2034 80.0212 39.2031 87.5996C39.2031 95.1782 44.6911 101.115 51.7471 101.115C57.4964 101.115 61.8642 97.7171 63.5068 92.4531H58.2061C57.0487 94.8051 54.6964 96.6348 51.7471 96.6348C47.4911 96.6347 44.1309 92.5276 44.1309 87.5996C44.1311 82.7092 47.4913 78.6026 51.7471 78.6025C54.7336 78.6025 57.0487 80.3571 58.2061 82.709H63.5449C61.9395 77.4078 57.6083 74.085 51.7471 74.085ZM89.3369 80.9551C83.9984 80.9552 79.668 85.323 79.668 91.0723C79.6681 96.8214 83.9984 101.115 89.3369 101.115C94.6755 101.115 99.0439 96.8215 99.0439 91.0723C99.0439 85.3229 94.6756 80.9551 89.3369 80.9551ZM103.005 92.5283C103.005 97.5682 106.179 101.115 111.555 101.115C116.781 101.115 120.216 97.4187 120.216 92.5283V81.4404H115.288V92.6777C115.288 94.8054 113.72 96.3358 111.555 96.3359C108.307 96.3359 107.933 93.7606 107.933 92.6777V81.4404H103.005V92.5283ZM132.731 80.9551C127.169 80.9551 124.518 84.0912 124.518 87.1152C124.518 91.4081 129.11 92.3416 132.545 92.8643C135.904 93.3868 136.577 93.8347 136.577 94.917C136.577 96.037 135.083 96.6348 133.104 96.6348C131.649 96.6347 129.67 96.0371 128.998 94.3945H123.995C124.592 98.5385 128.214 101.115 133.104 101.115C138.032 101.115 141.542 98.4269 141.542 94.6191C141.542 90.4379 138.108 89.3924 133.329 88.6084C130.94 88.2351 129.521 87.8986 129.521 86.8906C129.521 86.1813 130.454 85.3604 132.731 85.3604C134.561 85.3604 135.644 86.0698 135.942 86.9658H141.057C140.422 83.3445 137.137 80.9551 132.731 80.9551ZM145.438 92.5654C145.438 97.8294 148.425 101.227 154.062 100.63V96.1494C151.598 96.2987 150.366 95.2905 150.366 92.6025V85.8076H153.839V81.4404H150.366V76.5498H145.438V92.5654ZM77.3955 81.0664C71.0117 80.2824 67.2414 84.0906 67.2412 89.541V100.667H72.1689V89.541C72.1692 86.8159 74.2597 85.1363 77.3955 85.6963V81.0664ZM89.3369 85.4717C91.9502 85.4717 94.0781 87.7867 94.0781 91.1094C94.0781 94.3574 91.9502 96.5977 89.3369 96.5977C86.7237 96.5975 84.5957 94.3573 84.5957 91.1094C84.5957 87.7868 86.7237 85.4718 89.3369 85.4717ZM166.517 85.4717C169.13 85.4717 171.258 87.7868 171.258 91.1094C171.258 94.3574 169.13 96.5976 166.517 96.5977C163.903 96.5977 161.775 94.3574 161.775 91.1094C161.775 87.7867 163.903 85.4717 166.517 85.4717Z" fill="currentColor"/>
</svg>
