<svg width="150" height="150" viewBox="0 0 150 150" fill="none" xmlns="http://www.w3.org/2000/svg">
<path d="M50 45C50 47.7614 52.2386 50 55 50H95C97.7614 50 100 47.7614 100 45V0H145C147.761 1.40936e-07 150 2.23858 150 5V145C150 147.761 147.761 150 145 150H5C2.23858 150 2.2549e-06 147.761 0 145V5C1.40931e-07 2.23858 2.23858 2.25497e-06 5 0H50V45ZM30 100C27.2386 100 25 102.239 25 105V120C25 122.761 27.2386 125 30 125H70C72.7614 125 75 122.761 75 120V105C75 102.239 72.7614 100 70 100H30Z" fill="currentColor"/>
</svg>
