<svg width="250" height="250" viewBox="0 0 250 250" fill="none" xmlns="http://www.w3.org/2000/svg">
<rect width="250" height="250" fill="#7C49D6"/>
<path d="M100 95C100 97.7614 102.239 100 105 100H145C147.761 100 150 97.7614 150 95V75H195C197.761 75 200 77.2386 200 80V195C200 197.761 197.761 200 195 200H55C52.2386 200 50 197.761 50 195V80C50 77.2386 52.2386 75 55 75H100V95ZM80 150C77.2386 150 75 152.239 75 155V170C75 172.761 77.2386 175 80 175H95C97.7614 175 100 172.761 100 170V155C100 152.239 97.7614 150 95 150H80ZM155 150C152.239 150 150 152.239 150 155V170C150 172.761 152.239 175 155 175H170C172.761 175 175 172.761 175 170V155C175 152.239 172.761 150 170 150H155Z" fill="white"/>
</svg>
