<svg width="165" height="150" viewBox="0 0 165 150" fill="none" xmlns="http://www.w3.org/2000/svg">
<path d="M90 0C92.7614 4.02674e-08 95 2.23858 95 5V145C95 147.761 92.7614 150 90 150H75C72.2386 150 70 147.761 70 145V5C70 2.23858 72.2386 0 75 0H90ZM55 25C57.7614 25 60 27.2386 60 30V120C60 122.761 57.7614 125 55 125H40C37.2386 125 35 122.761 35 120V30C35 27.2386 37.2386 25 40 25H55ZM125 25C127.761 25 130 27.2386 130 30V120C130 122.761 127.761 125 125 125H110C107.239 125 105 122.761 105 120V30C105 27.2386 107.239 25 110 25H125ZM20 62C22.7614 62 25 64.2386 25 67V82C25 84.7614 22.7614 87 20 87H5C2.23858 87 0 84.7614 0 82V67C4.0266e-08 64.2386 2.23858 62 5 62H20ZM160 62C162.761 62 165 64.2386 165 67V82C165 84.7614 162.761 87 160 87H145C142.239 87 140 84.7614 140 82V67C140 64.2386 142.239 62 145 62H160Z" fill="white"/>
</svg>
