<svg width="150" height="125" viewBox="0 0 150 125" fill="none" xmlns="http://www.w3.org/2000/svg">
<path d="M50 20C50 22.7614 52.2386 25 55 25H95C97.7614 25 100 22.7614 100 20V0H145C147.761 1.40936e-07 150 2.23858 150 5V120C150 122.761 147.761 125 145 125H5C2.23858 125 1.44958e-06 122.761 0 120V5C0 2.23858 2.23858 2.25497e-06 5 0H50V20ZM30 75C27.2386 75 25 77.2386 25 80V95C25 97.7614 27.2386 100 30 100H45C47.7614 100 50 97.7614 50 95V80C50 77.2386 47.7614 75 45 75H30ZM105 75C102.239 75 100 77.2386 100 80V95C100 97.7614 102.239 100 105 100H120C122.761 100 125 97.7614 125 95V80C125 77.2386 122.761 75 120 75H105Z" fill="currentColor"/>
</svg>
